<?xml version="1.0" encoding="utf-8"?>
<svg xmlns="http://www.w3.org/2000/svg" xmlns:xlink="http://www.w3.org/1999/xlink" style="margin: auto; background: rgb(255, 255, 255); display: block; z-index: 1; position: relative; shape-rendering: auto;" width="1438" height="840" preserveAspectRatio="xMidYMid" viewBox="0 0 1438 840">
<g transform=""><g transform="translate(215.70000000000005,419.99999999999994) scale(100)" opacity="0.59">
  <path d="M4.882009999999999 0 C4.882009999999999 2.6171599999999997 4.858522045768481 3.180887032964492 2.5919950000000003 4.489467032964492 S-0.17447795423151735 5.5365246815296665 -2.4410049999999988 4.227944681529667 S-5.18399 2.61716 -5.18399 6.348556760311887e-16 S-4.707532045768483 -2.9193646815296646 -2.441005000000002 -4.2279446815296655 S0.325467954231514 -5.798047032964492 2.5919949999999963 -4.489467032964494 S4.882009999999998 -2.617160000000001 4.882009999999999 -1.1957475839810737e-15" fill="#007bff" stroke-width="0">
    <animateTransform attributeName="transform" type="rotate" dur="20s" repeatCount="indefinite" values="0;120"></animateTransform>
  </path>
</g><g transform="translate(115.04000000000008,419.99999999999994) scale(100)" opacity="0.59">
  <path d="M5.858411999999999 0 C5.858411999999999 3.140592 5.830226454922178 3.8170644395573894 3.1103940000000008 5.38736043955739 S-0.20937354507782002 6.643829617835599 -2.929205999999998 5.0735336178356 S-6.220788 3.1405920000000007 -6.220788 7.618268112374265e-16 S-5.649038454922179 -3.5032376178355977 -2.929206000000002 -5.073533617835599 S0.39056154507781704 -6.9576564395573905 3.110393999999996 -5.387360439557392 S5.858411999999998 -3.140592000000001 5.858411999999999 -1.4348971007772884e-15" fill="#007bff" stroke-width="0">
    <animateTransform attributeName="transform" type="rotate" dur="10s" repeatCount="indefinite" values="0;120"></animateTransform>
  </path>
</g><g transform="translate(-126.54399999999987,419.9999999999999) scale(100)" opacity="0.59">
  <path d="M8.2017768 0 C8.2017768 4.3968288 8.16231703689105 5.343890215380345 4.354551600000001 7.5423046153803455 S-0.2931229631089489 9.30136146496984 -4.100888399999998 7.102947064969841 S-8.7091032 4.396828800000001 -8.7091032 1.066557535732397e-15 S-7.908653836891052 -4.904532664969837 -4.100888400000003 -7.102947064969839 S0.5467861631089432 -9.740719015380346 4.3545515999999935 -7.54230461538035 S8.201776799999998 -4.3968288000000015 8.2017768 -2.008855941088204e-15" fill="#007bff" stroke-width="0">
    <animateTransform attributeName="transform" type="rotate" dur="6.666666666666666s" repeatCount="indefinite" values="0;120"></animateTransform>
  </path>
</g><g transform="translate(-633.8703999999998,419.99999999999983) scale(100)" opacity="0.59">
  <path d="M13.122842879999997 0 C13.122842879999997 7.034926079999999 13.059707259025679 8.550224344608552 6.967282560000001 12.067687384608552 S-0.4689967409743181 14.882178343951741 -6.561421439999996 11.364715303951744 S-13.934565119999998 7.034926080000001 -13.934565119999998 1.7064920571718351e-15 S-12.653846139025681 -7.847252263951738 -6.561421440000005 -11.36471530395174 S0.8748578609743101 -15.585150424608553 6.96728255999999 -12.06768738460856 S13.122842879999995 -7.034926080000003 13.122842879999997 -3.214169505741126e-15" fill="#007bff" stroke-width="0">
    <animateTransform attributeName="transform" type="rotate" dur="5s" repeatCount="indefinite" values="0;120"></animateTransform>
  </path>
</g><g transform="translate(-1716.1667199999997,419.9999999999997) scale(100)" opacity="0.59">
  <path d="M23.621117183999996 0 C23.621117183999996 12.662866944 23.507473066246224 15.390403820295397 12.541108608000004 21.721837292295398 S-0.8441941337537724 26.78792101911314 -11.810558591999992 20.45648754711314 S-25.082217216 12.662866944000003 -25.082217216 3.0716857029093036e-15 S-22.776923050246225 -14.12505407511313 -11.810558592000008 -20.456487547113134 S1.5747441497537586 -28.053270764295398 12.541108607999984 -21.721837292295408 S23.621117183999992 -12.662866944000005 23.621117183999996 -5.785505110334027e-15" fill="#007bff" stroke-width="0">
    <animateTransform attributeName="transform" type="rotate" dur="4s" repeatCount="indefinite" values="0;120"></animateTransform>
  </path>
</g></g>
</svg>