<?xml version="1.0" encoding="utf-8"?>
<svg xmlns="http://www.w3.org/2000/svg" xmlns:xlink="http://www.w3.org/1999/xlink" style="margin: auto; background: rgb(255, 255, 255); display: block; z-index: 1; position: relative; shape-rendering: auto;" width="671" height="743" preserveAspectRatio="xMidYMid" viewBox="0 0 671 743">
<g transform=""><linearGradient id="lg-0.9825585523405036" x1="0" x2="1" y1="0" y2="0">
  <stop stop-color="#007bff" offset="0"></stop>
  <stop stop-color="#00ffff" offset="1"></stop>
</linearGradient><path d="M 672 372 C 672 459 491 569 408 596 C 325 623 163 605 112 534 C 61 463 50 272 101 201 C 152 130 314 156 397 183 C 480 210 672 285 672 372" fill="url(#lg-0.9825585523405036)" opacity="0.4">
  <animate attributeName="d" dur="10s" repeatCount="indefinite" keyTimes="0;0.3333333333333333;0.6666666666666666;1" calcmod="spline" keySplines="0.3 0.1 0.7 0.9;0.3 0.1 0.7 0.9;0.3 0.1 0.7 0.9" begin="-4s" values="M 672 372 C 672 459 491 569 408 596 C 325 623 163 605 112 534 C 61 463 50 272 101 201 C 152 130 314 156 397 183 C 480 210 672 285 672 372;M 619 372 C 619 447 477 566 406 589 C 335 612 198 565 154 504 C 110 443 113 303 157 242 C 201 181 326 160 397 183 C 468 206 619 297 619 372;M 622 372 C 622 445 462 526 393 548 C 324 570 161 589 118 530 C 75 471 108 297 151 238 C 194 179 321 182 390 205 C 459 228 622 299 622 372;M 672 372 C 672 459 491 569 408 596 C 325 623 163 605 112 534 C 61 463 50 272 101 201 C 152 130 314 156 397 183 C 480 210 672 285 672 372"></animate>
</path><path d="M 607 372 C 607 443 456 512 388 534 C 320 556 190 565 148 507 C 106 449 82 276 124 218 C 166 160 316 201 384 223 C 452 245 607 301 607 372" fill="url(#lg-0.9825585523405036)" opacity="0.4">
  <animate attributeName="d" dur="10s" repeatCount="indefinite" keyTimes="0;0.3333333333333333;0.6666666666666666;1" calcmod="spline" keySplines="0.3 0.1 0.7 0.9;0.3 0.1 0.7 0.9;0.3 0.1 0.7 0.9" begin="-4s" values="M 607 372 C 607 443 456 512 388 534 C 320 556 190 565 148 507 C 106 449 82 276 124 218 C 166 160 316 201 384 223 C 452 245 607 301 607 372;M 515 372 C 515 429 442 515 388 533 C 334 551 221 524 188 478 C 155 432 167 319 200 273 C 233 227 323 226 377 243 C 431 260 515 315 515 372;M 596 372 C 596 447 474 555 403 578 C 332 601 165 587 121 527 C 77 467 84 280 128 220 C 172 160 326 158 397 181 C 468 204 596 297 596 372;M 607 372 C 607 443 456 512 388 534 C 320 556 190 565 148 507 C 106 449 82 276 124 218 C 166 160 316 201 384 223 C 452 245 607 301 607 372"></animate>
</path><path d="M 506 372 C 506 423 431 500 383 516 C 335 532 240 504 210 463 C 180 422 163 309 193 268 C 223 227 331 222 379 238 C 427 254 506 321 506 372" fill="url(#lg-0.9825585523405036)" opacity="0.4">
  <animate attributeName="d" dur="10s" repeatCount="indefinite" keyTimes="0;0.3333333333333333;0.6666666666666666;1" calcmod="spline" keySplines="0.3 0.1 0.7 0.9;0.3 0.1 0.7 0.9;0.3 0.1 0.7 0.9" begin="-4s" values="M 506 372 C 506 423 431 500 383 516 C 335 532 240 504 210 463 C 180 422 163 309 193 268 C 223 227 331 222 379 238 C 427 254 506 321 506 372;M 617 372 C 617 447 473 553 402 576 C 331 599 182 575 138 515 C 94 455 106 296 150 236 C 194 176 317 186 388 209 C 459 232 617 297 617 372;M 577 372 C 577 444 456 506 387 529 C 318 552 190 567 147 508 C 104 449 99 290 142 231 C 185 172 330 153 399 175 C 468 197 577 300 577 372;M 506 372 C 506 423 431 500 383 516 C 335 532 240 504 210 463 C 180 422 163 309 193 268 C 223 227 331 222 379 238 C 427 254 506 321 506 372"></animate>
</path><path d="M 569 372 C 569 433 445 510 387 529 C 329 548 231 523 195 474 C 159 425 117 288 153 239 C 189 190 321 219 379 238 C 437 257 569 311 569 372" fill="url(#lg-0.9825585523405036)" opacity="0.4">
  <animate attributeName="d" dur="10s" repeatCount="indefinite" keyTimes="0;0.3333333333333333;0.6666666666666666;1" calcmod="spline" keySplines="0.3 0.1 0.7 0.9;0.3 0.1 0.7 0.9;0.3 0.1 0.7 0.9" begin="-4s" values="M 569 372 C 569 433 445 510 387 529 C 329 548 231 523 195 474 C 159 425 117 288 153 239 C 189 190 321 219 379 238 C 437 257 569 311 569 372;M 545 372 C 545 438 457 532 394 552 C 331 572 178 567 139 514 C 100 461 108 287 147 234 C 186 181 317 214 380 234 C 443 254 545 306 545 372;M 547 372 C 547 429 430 477 376 495 C 322 513 215 529 182 483 C 149 437 158 313 191 267 C 224 221 325 221 379 239 C 433 257 547 315 547 372;M 569 372 C 569 433 445 510 387 529 C 329 548 231 523 195 474 C 159 425 117 288 153 239 C 189 190 321 219 379 238 C 437 257 569 311 569 372"></animate>
</path><path d="M 535 372 C 535 425 428 482 377 499 C 326 516 243 504 212 461 C 181 418 165 313 196 270 C 227 227 322 240 373 256 C 424 272 535 319 535 372" fill="url(#lg-0.9825585523405036)" opacity="0.4">
  <animate attributeName="d" dur="10s" repeatCount="indefinite" keyTimes="0;0.3333333333333333;0.6666666666666666;1" calcmod="spline" keySplines="0.3 0.1 0.7 0.9;0.3 0.1 0.7 0.9;0.3 0.1 0.7 0.9" begin="-4s" values="M 535 372 C 535 425 428 482 377 499 C 326 516 243 504 212 461 C 181 418 165 313 196 270 C 227 227 322 240 373 256 C 424 272 535 319 535 372;M 528 372 C 528 424 424 475 374 491 C 324 507 240 505 209 463 C 178 421 159 308 190 266 C 221 224 335 204 385 220 C 435 236 528 320 528 372;M 509 372 C 509 428 429 479 376 496 C 323 513 237 512 204 467 C 171 422 170 320 203 275 C 236 230 327 218 380 235 C 433 252 509 316 509 372;M 535 372 C 535 425 428 482 377 499 C 326 516 243 504 212 461 C 181 418 165 313 196 270 C 227 227 322 240 373 256 C 424 272 535 319 535 372"></animate>
</path></g>
</svg>