<?xml version="1.0" encoding="utf-8"?><svg xml:space="preserve" viewBox="0 0 100 100" y="0" x="0" xmlns="http://www.w3.org/2000/svg" id="圖層_1" version="1.1" width="47px" height="47px" xmlns:xlink="http://www.w3.org/1999/xlink" style="width:100%;height:100%;background-size:initial;background-repeat-y:initial;background-repeat-x:initial;background-position-y:initial;background-position-x:initial;background-origin:initial;background-color:initial;background-clip:initial;background-attachment:initial;animation-play-state:paused" ><g class="ldl-scale" style="transform-origin:50% 50%;transform:rotate(0deg) scale(0.8, 0.8);animation-play-state:paused" ><path fill="#d1d1d1" d="M23.014 92.5c-4.397 0-8.039-2.722-9.503-7.102-3.554-10.629-5.09-21.304-4.566-31.73.24-4.838 3.612-8.124 8.391-8.174.982-.011 1.964-.014 2.947-.014.758 0 3.723.008 4.448.008l7.549-.279.149-.001c1.269 0 2.232.323 2.95.746.596-.627 1.309-1.104 2.013-1.372 1.082-.411 1.425-.844 1.635-1.252.303-.588.614-1.145.914-1.684.19-.341.381-.682.566-1.026 1.587-2.945 3.685-5.488 6.417-7.776 4.115-3.447 6.916-8.053 8.908-11.753.011-.109.022-.246.03-.358.014-.179.027-.355.044-.528a37.49 37.49 0 0 0 .177-2.822c.163-6.489 4.739-9.882 9.174-9.882 1.245 0 2.481.245 3.675.73 3.978 1.615 4.938 4.31 5.785 6.688.067.187.136.382.21.584 2 5.501 1.666 13.061-.793 17.978a72.335 72.335 0 0 0-1.234 2.612c.439.042.867.079 1.285.109.496.035 1.014.04 1.454.04l1.159-.004c1.279 0 2.664.043 4.125.357 3.544.761 6.339 2.72 7.867 5.517 1.41 2.58 1.65 5.693.702 8.856 2.304 3.919 2.211 9.193-.239 13.282 1.062 4.45-.393 9.235-3.734 12.396.47 4.426-1.634 7.165-6.755 8.976-3.011 1.066-6.262 1.696-9.939 1.926-3.549.222-6.608.414-10.03.414-1.446 0-2.88-.034-4.383-.103-.305-.014-.645-.025-1.014-.037-3.07-.101-7.954-.261-11.663-2.378a4.68 4.68 0 0 1-.495 1.288c-1.048 1.859-2.899 2.317-4.006 2.591l-4.184 1.036c-2.43.603-4.86 1.205-7.292 1.801-.92.226-1.844.34-2.744.34z" style="animation-play-state:paused" ></path>
<path fill="#464646" d="M85.313 62.785c2.245-3.094 2.368-7.454.251-10.339-.507-.692-.518-1.207-.233-1.963 1.79-4.774-.293-8.813-5.27-9.882-2.052-.441-4.052-.163-6.166-.312-2.174-.153-4.516-.489-6.863-.655.221-.698.316-1.146.5-1.557.964-2.151 1.882-4.324 2.935-6.43 2.009-4.017 2.147-10.506.606-14.744-.898-2.471-1.197-3.866-3.684-4.875-3.354-1.361-7.086.529-7.21 5.453a41.385 41.385 0 0 1-.196 3.127c-.072.724-.064 1.531-.391 2.141-2.64 4.941-5.695 9.599-10.037 13.236-2.235 1.872-4.063 4.022-5.439 6.575-.477.886-.986 1.754-1.448 2.648-.829 1.606-2.157 2.572-3.818 3.202-.363.138-.825.641-.836.991-.132 3.746-.377 7.501-.214 11.238.282 6.405 1.252 13.748 3.581 18.752 2.051 4.407 9.776 4.213 13.218 4.372 5.224.241 9.016.003 13.968-.307 3.006-.188 5.933-.675 8.828-1.699 4.201-1.486 4.559-2.92 3.788-6.122-.007-.425.314-1.003.666-1.259 3.045-2.221 4.424-6.327 3.201-9.923-.227-.664-.146-1.104.263-1.668zM37.48 83.222c-3.3-10.618-5.115-21.409-3.812-32.565.121-1.034-.312-1.368-1.315-1.35l-7.547.28c-2.475 0-4.951-.021-7.428.007-2.599.027-4.211 1.648-4.341 4.281-.52 10.36 1.08 20.415 4.36 30.226 1.122 3.357 3.97 4.918 7.385 4.08 3.824-.936 7.644-1.891 11.466-2.835 1.639-.407 1.728-.533 1.232-2.124zm-8.802-6.027a3.334 3.334 0 1 1 0 6.669 3.334 3.334 0 0 1 0-6.669z" style="fill:rgb(254, 254, 254);animation-play-state:paused" ></path>
<metadata xmlns:d="https://loading.io/stock/" style="animation-play-state:paused" ><d:name style="animation-play-state:paused" >like</d:name>
<d:tags style="animation-play-state:paused" >thumbs up,good,favorite,support,great,rank,like,map</d:tags>
<d:license style="animation-play-state:paused" >free</d:license>
<d:slug style="animation-play-state:paused" >o9vgjs</d:slug></metadata></g><!-- generated by https://loading.io/ --></svg>